<?xml version="1.0" encoding="UTF-8" standalone="no"?>
<svg
   version="1.1"
   id="Layer_1"
   x="0px"
   y="0px"
   viewBox="0 0 122.879 109.659"
   enable-background="new 0 0 122.879 109.659"
   xml:space="preserve"
   sodipodi:docname="logo.svg"
   inkscape:export-filename="logo.png"
   inkscape:export-xdpi="96"
   inkscape:export-ydpi="96"
   inkscape:version="1.4.2 (ebf0e940d0, 2025-05-08)"
   xmlns:inkscape="http://www.inkscape.org/namespaces/inkscape"
   xmlns:sodipodi="http://sodipodi.sourceforge.net/DTD/sodipodi-0.dtd"
   xmlns="http://www.w3.org/2000/svg"
   xmlns:svg="http://www.w3.org/2000/svg"><defs
     id="defs1" /><sodipodi:namedview
     id="namedview1"
     pagecolor="#ffffff"
     bordercolor="#000000"
     borderopacity="0.25"
     inkscape:showpageshadow="2"
     inkscape:pageopacity="0.0"
     inkscape:pagecheckerboard="0"
     inkscape:deskcolor="#d1d1d1"
     inkscape:zoom="3.6659099"
     inkscape:cx="181.94664"
     inkscape:cy="22.095469"
     inkscape:window-width="1088"
     inkscape:window-height="995"
     inkscape:window-x="0"
     inkscape:window-y="0"
     inkscape:window-maximized="1"
     inkscape:current-layer="g1" /><g
     id="g1"><path
       fill-rule="evenodd"
       clip-rule="evenodd"
       d="M101.831,1.242l5.49,5.49c1.656,1.656,1.655,4.367,0,6.022L88.166,31.91 l3.075,2.945l19.066-19.066c1.633-1.633,4.303-1.632,5.936,0l5.411,5.411c1.633,1.633,1.633,4.304,0,5.937L98.608,50.182 c-1.632,1.632-4.304,1.633-5.937,0l-5.411-5.412c-1.632-1.633-1.633-4.303,0-5.937l1.256-1.255l-2.993-3.027l-5.781,5.781v65.128 c0,2.306-1.892,4.198-4.197,4.198h-7.652c-2.306,0-4.197-1.889-4.197-4.198v-49.04h-4.511v49.04c0,2.31-1.892,4.198-4.197,4.198 h-7.652c-2.306,0-4.198-1.893-4.198-4.198V40.333l-5.782-5.781l-2.993,3.027l1.256,1.255c1.633,1.633,1.632,4.304,0,5.937 l-5.411,5.412c-1.633,1.633-4.304,1.632-5.937,0L1.225,27.136c-1.632-1.633-1.633-4.304,0-5.937l5.411-5.411 c1.633-1.632,4.303-1.633,5.936,0l19.066,19.066l3.075-2.945L15.558,12.754c-1.656-1.656-1.657-4.366,0-6.022l5.489-5.49 c1.657-1.656,4.366-1.657,6.023,0L57.969,32.14c0.95,0.95,1.355,2.247,1.215,3.492v3.773h4.511v-3.773 c-0.141-1.246,0.265-2.542,1.215-3.492L95.809,1.242C97.466-0.415,100.175-0.414,101.831,1.242L101.831,1.242z M63.695,52.038 v-8.25h-4.511v8.25H63.695L63.695,52.038z"
       id="path1"
       style="fill:#008080" /></g></svg>
